<svg xmlns="http://www.w3.org/2000/svg" xml:space="preserve" width="140" height="42"
  viewBox="0 0 156.6 46.4">
                                        <title>Get bKash app on App Store</title>
                                    <path fill="#A6A6A6" d="M151 46.4H5.5c-3 0-5.5-2.5-5.5-5.5V5.5C0 2.5 2.5 0 5.5 0H151c3 0 5.5 2.4 5.6 5.5v35.4c0 3.1-2.5 5.5-5.6 5.5z"></path>
                                    <path fill="#1E1E1E" d="M155.5 40.9c0 2.5-2 4.4-4.4 4.4H5.5c-2.5 0-4.4-2-4.5-4.4V5.5C1 3 3 1 5.5 1H151c2.5 0 4.4 2 4.4 4.4v35.5z"></path>
                                    <g fill="#FFF">
                                        <path d="M34.939 22.912c0-2.3 1.2-4.4 3.2-5.6-1.2-1.8-3.3-2.9-5.4-2.9-2.3-.2-4.5 1.4-5.7 1.4-1.2 0-3-1.3-4.9-1.3-2.5.1-4.8 1.5-6.1 3.7-2.6 4.6-.7 11.2 1.9 14.9 1.3 1.8 2.7 3.8 4.7 3.7 1.9-.1 2.6-1.2 4.9-1.2 2.3 0 2.9 1.2 4.9 1.2 2 0 3.3-1.8 4.5-3.6.9-1.3 1.6-2.7 2.1-4.2-2.5-1.1-4.1-3.4-4.1-6.1zM31.239 11.912c1.1-1.3 1.6-3 1.5-4.7-1.7.2-3.2 1-4.4 2.3-1.1 1.3-1.7 2.9-1.6 4.6 1.8-.1 3.4-.8 4.5-2.2z"></path>
                                    </g>
                                    <g fill="#FFF">
                                        <path d="M62.198 36.582h-2.6l-1.4-4.6h-5l-1.4 4.5h-2.6l5-15.4h3l5 15.5zm-4.5-6.5-1.3-4c-.1-.4-.4-1.4-.8-2.9-.2.6-.4 1.6-.7 2.9l-1.3 4h4.1zM74.998 30.882c.1 1.6-.5 3.2-1.5 4.5-.9 1-2.1 1.5-3.4 1.5-1.3.1-2.5-.5-3.2-1.6v5.9h-2.5v-12c0-1.2 0-2.4-.1-3.7h2.2l.1 1.8c1.3-2 4.1-2.6 6.1-1.3.4.2.7.5 1 .8.9 1.1 1.4 2.6 1.3 4.1zm-2.5.1c0-.9-.2-1.9-.7-2.7-.5-.7-1.3-1.1-2.2-1.1-.6 0-1.2.2-1.7.6-.5.4-.8 1-1 1.6-.1.2-.1.5-.1.8v1.9c0 .8.2 1.5.7 2.1.5.6 1.2.9 1.9.8.9 0 1.7-.4 2.2-1.1.7-.9.9-1.9.9-2.9zM87.798 30.882c.1 1.6-.5 3.2-1.5 4.5-.9 1-2.1 1.5-3.4 1.5-1.3.1-2.5-.5-3.2-1.6v5.9h-2.5v-12c0-1.2 0-2.4-.1-3.7h2.2l.1 1.8c1.3-2 4.1-2.6 6.1-1.3.4.2.7.5 1 .8.9 1.1 1.4 2.6 1.3 4.1zm-2.5.1c0-.9-.2-1.9-.7-2.7-.5-.7-1.3-1.1-2.2-1.1-.6 0-1.2.2-1.7.6-.5.4-.8 1-1 1.6-.1.2-.1.5-.1.8v1.9c0 .8.2 1.5.7 2.1.5.6 1.2.9 1.9.8.9 0 1.7-.4 2.2-1.1.7-.9.9-1.9.9-2.9zM102.098 32.182c0 1.2-.5 2.4-1.4 3.2-1.2 1-2.7 1.4-4.2 1.4-1.4.1-2.8-.3-4-1l.6-2.1c1.1.7 2.3 1 3.6 1 .8 0 1.5-.2 2.2-.6.5-.4.8-1 .8-1.7 0-.6-.2-1.2-.6-1.6-.6-.5-1.3-.9-2.1-1.2-2.7-1-4.1-2.5-4.1-4.4 0-1.2.5-2.4 1.4-3.1 1.1-.9 2.4-1.3 3.8-1.2 1.2 0 2.4.2 3.5.7l-.6 2c-.9-.5-1.9-.7-3-.7-.7 0-1.5.2-2 .6-.4.4-.6.9-.6 1.4 0 .6.3 1.1.7 1.5.7.5 1.4.9 2.2 1.2 1.1.4 2.1 1 2.9 1.9.6.8 1 1.8.9 2.7zM110.298 27.282h-2.7v5.4c0 1.4.5 2.1 1.4 2.1.4 0 .7 0 1.1-.1l.1 1.9c-.6.2-1.3.3-1.9.3-.9 0-1.7-.3-2.3-.9-.6-.9-.9-1.9-.8-3v-5.7h-1.6v-1.9h1.6v-2l2.4-.7v2.8h2.7v1.8zM122.598 30.882c.1 1.5-.5 3-1.5 4.2-1 1.1-2.5 1.8-4.1 1.7-1.4.1-2.8-.5-3.8-1.6s-1.5-2.6-1.5-4.1c0-1.6.5-3.1 1.5-4.2s2.5-1.7 4-1.6c1.5-.2 3 .4 4 1.5 1 1.2 1.5 2.6 1.4 4.1zm-2.6.1c0-.9-.2-1.8-.7-2.6-.4-.8-1.3-1.3-2.2-1.3-.9 0-1.8.5-2.3 1.3-.4.8-.6 1.7-.6 2.6 0 .9.2 1.8.7 2.6.7 1.2 2.2 1.7 3.4 1 .4-.2.8-.6 1-1.1.5-.7.8-1.6.7-2.5zM130.598 27.582c-.3 0-.5-.1-.8-.1-.8 0-1.6.3-2 1-.4.7-.6 1.4-.6 2.2v5.8h-2.5v-7.6c0-1.3 0-2.5-.1-3.5h2.2l.1 2.1h.1c.2-.6.7-1.2 1.2-1.7.5-.4 1.1-.6 1.8-.6h.6v2.4zM141.698 30.482c0 .4 0 .8-.1 1.1h-7.4c0 1 .4 1.9 1.1 2.5.7.5 1.6.8 2.4.8 1 0 2-.2 3-.5l.4 1.7c-1.2.5-2.5.7-3.7.7-1.5.1-3-.5-4.1-1.5-1-1.1-1.6-2.6-1.5-4.1-.1-1.5.4-3 1.4-4.2.9-1.2 2.4-1.8 3.9-1.8 1.4-.1 2.8.6 3.6 1.8.7 1 1.1 2.2 1 3.5zm-2.3-.7c0-.7-.1-1.3-.5-1.9-.4-.7-1.2-1.1-2-1-.8 0-1.5.4-2 1-.4.6-.7 1.2-.7 1.9h5.2z"></path>
                                    </g>
                                    <g fill="#FFF">
                                        <path d="M56.867 11.605c.1 1.2-.3 2.3-1.2 3.1-.9.7-2.1 1-3.2 1-.6 0-1.2-.1-1.8-.1v-7.5c.7-.1 1.4-.2 2.1-.2 1.1-.1 2.1.2 3 .9.8.7 1.2 1.7 1.1 2.8zm-1.2 0c0-.7-.2-1.4-.7-2-.6-.5-1.4-.8-2.1-.7-.3 0-.7 0-1 .1v5.6h.8c.8.1 1.6-.2 2.2-.8.5-.5.8-1.3.8-2.2zM63.667 12.805c0 .8-.2 1.5-.7 2.1-.5.6-1.2.9-2 .8-.7 0-1.4-.3-1.9-.8-.5-.6-.7-1.3-.7-2 0-.8.2-1.5.7-2.1.5-.5 1.2-.8 2-.8.7 0 1.4.3 1.9.8.5.6.8 1.3.7 2zm-1.2 0c0-.5-.1-.9-.3-1.3-.2-.4-.6-.7-1.1-.7-.5 0-.9.2-1.1.7-.3.4-.4.9-.4 1.4 0 .5.1.9.3 1.3.3.4.7.6 1.1.6.5 0 .9-.3 1.1-.7.3-.4.4-.8.4-1.3zM72.767 10.105l-1.7 5.5h-1.1l-.7-2.4c-.2-.6-.3-1.2-.4-1.8-.2.6-.3 1.2-.5 1.8l-.7 2.4h-1.1l-1.6-5.5h1.2l.6 2.6c.1.6.3 1.2.4 1.8.1-.5.2-1 .5-1.7l.8-2.6h1l.7 2.6c.2.6.3 1.2.4 1.8.1-.6.2-1.2.4-1.8l.7-2.7h1.1zM79.067 15.605h-1.2v-3.2c0-1-.4-1.4-1.1-1.4-.3 0-.7.1-.9.4-.2.3-.3.6-.3.9v3.3h-1.2v-5.5h1.1l.1.9c.1-.3.4-.5.6-.7.3-.2.7-.3 1.1-.3.5 0 .9.2 1.3.5.5.5.7 1.1.6 1.8l-.1 3.3zM82.467 15.605h-1.2v-8h1.2v8zM89.667 12.805c0 .8-.2 1.5-.7 2.1-.5.6-1.2.9-2 .8-.7 0-1.4-.3-1.9-.8-.5-.6-.7-1.3-.7-2 0-.8.2-1.5.7-2.1.5-.5 1.2-.8 2-.8.7 0 1.4.3 1.9.8.4.6.7 1.3.7 2zm-1.3 0c0-.5-.1-.9-.3-1.3-.2-.4-.6-.7-1.1-.7-.5 0-.9.2-1.1.7-.2.4-.3.9-.3 1.3 0 .5.1.9.3 1.3.2.4.6.7 1.1.7.5 0 .9-.3 1.1-.7.2-.3.3-.8.3-1.3zM95.467 15.605h-1.1l-.1-.6c-.4.5-1 .8-1.6.8-.5 0-.9-.2-1.2-.5-.3-.3-.4-.7-.4-1.1 0-.6.3-1.2.8-1.5.7-.4 1.5-.6 2.4-.5v-.3c0-.7-.4-1.1-1.1-1.1-.5 0-1 .1-1.4.4l-.2-.8c.6-.3 1.2-.5 1.9-.5 1.4 0 2.1.8 2.1 2.3v2c-.1.5-.1.9-.1 1.4zm-1.2-1.9v-.8c-1.3 0-2 .3-2 1.1 0 .2.1.5.2.6.2.1.4.2.6.2.3 0 .5-.1.7-.3.3-.1.5-.5.5-.8zM102.367 15.605h-1.1l-.1-.9c-.3.7-1 1.1-1.8 1-.6 0-1.2-.3-1.6-.8-.5-.6-.7-1.3-.7-2 0-.8.2-1.5.7-2.2.4-.5 1-.8 1.7-.8.6-.1 1.2.2 1.5.7v-3h1.2v6.5c.2.5.2 1 .2 1.5zm-1.2-2.3v-1.3c-.1-.3-.2-.5-.4-.7-.2-.2-.5-.3-.8-.3-.4 0-.8.2-1.1.5-.3.4-.4.9-.4 1.4 0 .5.1.9.4 1.3.2.3.6.6 1.1.5.4 0 .7-.2 1-.4.1-.3.2-.7.2-1zM112.767 12.805c0 .8-.2 1.5-.7 2.1-.5.6-1.2.9-2 .8-.7 0-1.4-.3-1.9-.8-.5-.6-.7-1.3-.7-2 0-.8.2-1.5.7-2.1.5-.5 1.2-.8 2-.8.7 0 1.4.3 1.9.8.5.6.8 1.3.7 2zm-1.2 0c0-.5-.1-.9-.3-1.3-.2-.4-.6-.7-1.1-.7-.5 0-.9.2-1.1.7-.3.4-.4.9-.4 1.4 0 .5.1.9.3 1.3.3.6 1.1.8 1.7.5.2-.1.4-.3.5-.5.3-.4.4-.9.4-1.4zM119.367 15.605h-1.2v-3.2c0-1-.4-1.4-1.1-1.4-.3 0-.7.1-.9.4-.2.3-.3.6-.3.9v3.3h-1.2v-5.5h1v.9c.1-.3.4-.5.6-.7.3-.2.7-.3 1.1-.3.5 0 .9.2 1.3.5.5.5.7 1.1.6 1.8l.1 3.3zM127.567 11.005h-1.3v2.7c0 .7.2 1 .7 1 .2 0 .4 0 .5-.1v.9c-.3.1-.6.1-.9.1-.4 0-.8-.1-1.1-.4-.3-.4-.5-.9-.4-1.5v-2.7h-.8v-.9h.8v-1l1.2-.4v1.4h1.3v.9zM133.967 15.605h-1.2v-3.1c0-1-.4-1.5-1.1-1.5-.5 0-1 .3-1.2.9 0 .1-.1.3-.1.4v3.3h-1.2v-8h1.2v3.3c.3-.6 1-.9 1.6-.9.5 0 .9.2 1.3.5.4.5.7 1.2.6 1.8l.1 3.3zM140.567 12.605v.6h-3.6c0 .5.2.9.5 1.2.3.2.7.4 1.2.4s1-.1 1.5-.3l.2.8c-.6.2-1.2.4-1.8.3-.7 0-1.5-.2-2-.7-.5-.5-.8-1.3-.7-2 0-.7.2-1.5.7-2.1.5-.6 1.2-.9 1.9-.9s1.4.3 1.8.9c.2.6.4 1.2.3 1.8zm-1.1-.3c0-.3-.1-.7-.2-.9-.2-.3-.6-.5-1-.5s-.7.2-1 .5c-.2.3-.3.6-.4.9h2.6z"></path>
                                    </g>
                                </svg>