<svg xmlns="http://www.w3.org/2000/svg" version="1.1" xmlns:xlink="http://www.w3.org/1999/xlink"
  width="512" height="512" x="0" y="0" viewBox="0 0 512 512"
  style="enable-background:new 0 0 512 512" xml:space="preserve" class=""><g><path d="M445.326 41.297a84.004 84.004 0 0 1-38.64 154.451 4.006 4.006 0 0 0-2.553 1.207l-34.031 35.2 5.752 5.56 32.995-34.127a92.009 92.009 0 1 0-61.78-166.861l4.598 6.546a83.731 83.731 0 0 1 93.66-1.976Z" fill="#ffffff" opacity="1" data-original="#000000"></path><path
      d="m276.47 352.1 14.05-28.1h21.528a20.022 20.022 0 0 0 20-20v-22.758a17.343 17.343 0 0 0 2.828-2.28l18.668-18.666a17.17 17.17 0 0 0-8.41-28.925l8.409-8.41a17.187 17.187 0 0 0-8.398-28.934l8.398-8.398a17.169 17.169 0 0 0-8.408-28.925l8.409-8.408a17.197 17.197 0 0 0-21.496-26.603V40a20.022 20.022 0 0 0-20-20h-128a20.022 20.022 0 0 0-20 20v139.054l-29.525 21.472a36.025 36.025 0 0 0-14.026 36.658l19.392 90.498-63.58 166.894 7.477 2.848 64-168a4 4 0 0 0 .173-2.262l-19.64-91.654a28.021 28.021 0 0 1 10.91-28.51l67.984-49.444 3.829 5.105a28.12 28.12 0 0 1-3.96 37.872l-41.668 36.458a4.001 4.001 0 0 0-1.366 3.011v64a20.022 20.022 0 0 0 20 20h97.527l-12.26 24.521A27.847 27.847 0 0 1 244.27 364h-20.223a4 4 0 0 0-3.881 3.03l-32 128 7.762 1.94L227.17 372h17.1a35.805 35.805 0 0 0 32.2-19.9Zm71.417-110.471a9.212 9.212 0 0 1 0 13.01l-18.668 18.667a9.2 9.2 0 1 1-13.01-13.01l18.667-18.667a9.212 9.212 0 0 1 13.01 0Zm0-37.333a9.211 9.211 0 0 1 0 13.01l-18.667 18.667a9.2 9.2 0 1 1-13.011-13.011l18.667-18.666h.001a9.2 9.2 0 0 1 13.01 0Zm-.001-37.334a9.212 9.212 0 0 1 0 13.01L329.22 198.64a9.2 9.2 0 0 1-13.011-13.011l18.667-18.667a9.211 9.211 0 0 1 13.01 0Zm-13.01-37.333a9.2 9.2 0 0 1 13.01 13.01l-18.667 18.667a9.2 9.2 0 0 1-13.01-13.01ZM212.048 28h72v4a12.013 12.013 0 0 1-12 12h-48a12.013 12.013 0 0 1-12-12Zm-40 145.236V40a12.013 12.013 0 0 1 12-12h20v4a20.022 20.022 0 0 0 20 20h48a20.022 20.022 0 0 0 20-20v-4h20a12.013 12.013 0 0 1 12 12v89.145l-13.495 13.495a17.127 17.127 0 0 0-2.505 3.21V136a60 60 0 1 0-120 0v16a60.623 60.623 0 0 0 .686 9.1ZM296.07 116.07a60.27 60.27 0 0 0-28.022-20.63v-7.435a52.296 52.296 0 0 1 28.022 28.065Zm-36.022-30.657v7.794a60.23 60.23 0 0 0-24 0v-7.794a51.659 51.659 0 0 1 24 0Zm-32 2.592v7.435a60.266 60.266 0 0 0-28.022 20.63 52.295 52.295 0 0 1 28.022-28.065Zm-16.8 61.595a4.002 4.002 0 0 0-5.553-.835l-9.503 6.911a52.593 52.593 0 0 1-.144-3.676 51.996 51.996 0 1 1 24.475 44.12 36.181 36.181 0 0 0-3.08-38.262Zm-27.2 166.4a12.013 12.013 0 0 1-12-12v-62.185l40.3-35.262a35.665 35.665 0 0 0 3.724-3.785 59.988 59.988 0 0 0 91.104-40.64 17.044 17.044 0 0 0 11.775 9.446l-8.398 8.399a17.168 17.168 0 0 0 8.408 28.924l-8.41 8.409a17.168 17.168 0 0 0 8.41 28.924l-8.408 8.41A17.2 17.2 0 0 0 322.715 284c.448 0 .89-.031 1.333-.065V304a12.013 12.013 0 0 1-12 12ZM89.03 372.638a59.64 59.64 0 0 1-17.812-82.442l-6.725-4.334a67.64 67.64 0 0 0 20.202 93.5Z"
      fill="#ffffff" opacity="1" data-original="#000000"></path><path
      d="M110.223 314.896a13.091 13.091 0 0 0 3.909 18.096l4.336-6.722a5.093 5.093 0 0 1-1.52-7.04ZM87.354 300.364a40.365 40.365 0 0 0 12.057 55.798l4.334-6.724a32.365 32.365 0 0 1-9.666-44.74ZM483.836 362.142a92.001 92.001 0 0 0-168.628 2.077l-57.968 21.306a4 4 0 0 0-.745 7.144l55.723 34.934a92.002 92.002 0 1 0 171.618-65.461Zm-5.291 67.548a84.004 84.004 0 0 1-159.106-5.825 3.997 3.997 0 0 0-1.709-2.248l-50.078-31.395 51.97-19.102a4.003 4.003 0 0 0 2.335-2.273 84 84 0 0 1 156.588 60.843ZM237.22 293.171l56-56 5.656 5.657-56 56zM269.22 293.172l24-24 5.655 5.656-24 24zM414.574 171.506a41.098 41.098 0 0 0 40.486-35.113 71.347 71.347 0 0 0-10.116-47.842l-26.978-43.165a4 4 0 0 0-6.783 0L384.204 88.55a71.347 71.347 0 0 0-10.115 47.842 41.098 41.098 0 0 0 40.485 35.113ZM390.987 92.79l23.587-37.738 23.587 37.738a63.343 63.343 0 0 1 8.979 42.47 32.896 32.896 0 0 1-65.131 0 63.343 63.343 0 0 1 8.978-42.47Z"
      fill="#ffffff" opacity="1" data-original="#000000"></path><path
      d="M429.342 137.26a32.785 32.785 0 0 1-3.762 11.252l7.002 3.867a40.74 40.74 0 0 0 4.68-13.986 71.355 71.355 0 0 0-10.116-47.842l-7.297-11.676-6.784 4.24 7.298 11.676a63.35 63.35 0 0 1 8.979 42.47ZM139.27 109.695a3.996 3.996 0 0 0-4.054-1.617l-31.98 6.396 20.342-40.685A4.001 4.001 0 0 0 120 68H96a4 4 0 0 0-3.795 2.735l-24 72a4 4 0 0 0 4.765 5.146l25.281-6.32-14.097 49.34a4 4 0 0 0 7.276 3.157l48-80a4 4 0 0 0-.16-4.363Zm-39.087 54.226 7.663-26.822a4 4 0 0 0-4.816-4.98L78.1 138.353 98.883 76h14.645l-21.106 42.21a4 4 0 0 0 4.362 5.712l31.134-6.227ZM428 336h-56a12.013 12.013 0 0 0-12 12v104a12.013 12.013 0 0 0 12 12h56a12.013 12.013 0 0 0 12-12V348a12.013 12.013 0 0 0-12-12Zm-44 8h32v4a4.004 4.004 0 0 1-4 4h-24a4.004 4.004 0 0 1-4-4Zm48 108a4.004 4.004 0 0 1-4 4h-56a4.004 4.004 0 0 1-4-4V348a4.004 4.004 0 0 1 4-4h4v4a12.013 12.013 0 0 0 12 12h24a12.013 12.013 0 0 0 12-12v-4h4a4.004 4.004 0 0 1 4 4Z"
      fill="#ffffff" opacity="1" data-original="#000000"></path><path
      d="M104.36 211.658a84.005 84.005 0 1 1 45.82-158.5l3.64-7.124A91.014 91.014 0 0 0 112 36a92.003 92.003 0 0 0-8.36 183.625Z"
      fill="#ffffff" opacity="1" data-original="#000000"></path></g></svg>