<svg xmlns="http://www.w3.org/2000/svg" version="1.1" xmlns:xlink="http://www.w3.org/1999/xlink"
  width="512" height="512" x="0" y="0" viewBox="0 0 512 512"
  style="enable-background:new 0 0 512 512" xml:space="preserve" class=""><g><path d="M320.835 271.117h-9.912l30.099 30.359 30.1-30.359h-9.913a7 7 0 0 1-7-7v-48.042a7 7 0 1 1 14 0v41.042h19.71a6.999 6.999 0 0 1 4.971 11.929l-46.896 47.302a7.002 7.002 0 0 1-9.942 0l-46.896-47.302a7 7 0 0 1 4.971-11.929h19.709v-41.042a7 7 0 1 1 14 0v48.042a7.001 7.001 0 0 1-7.001 7zm151.896 119.605-135.35 52.158c-1.427.55-2.887 1.118-4.374 1.697-16.896 6.575-36.996 14.397-56.166 14.397-5.568 0-11.057-.659-16.367-2.201l-72.118-20.939c-8.812-2.558-17.109-1.853-25.365 2.16l-22.599 10.988 3.933 9.444c2.25 5.402 2.27 11.334.055 16.704-2.216 5.369-6.412 9.562-11.817 11.808l-34.672 14.397A21.686 21.686 0 0 1 89.563 503c-8.545 0-16.673-5.054-20.154-13.417L10.695 348.602c-2.25-5.404-2.269-11.337-.053-16.707 2.216-5.368 6.412-9.562 11.817-11.805l34.671-14.397c11.094-4.604 23.868.666 28.482 11.752l3.478 8.352c16.574-7.833 34.11-16.179 51.792-24.826 36.913-18.049 62.016-27.479 108.858 5.345l64.188 17.199c9.691 2.597 17.808 8.84 22.853 17.579.435.753.843 1.517 1.222 2.289l90.349-26.505c19.849-5.823 36.342-6.961 49.022-3.387 11.785 3.323 20.221 10.896 23.753 21.323 7.052 20.816-6.482 47.464-28.396 55.908zm-341.33 73.087L72.689 322.827c-1.246-2.992-4.153-4.801-7.21-4.801-.995 0-2.005.191-2.979.597L27.828 333.02c-1.949.809-3.456 2.307-4.244 4.216-.788 1.91-.775 4.036.035 5.984l58.713 140.981c1.651 3.966 6.219 5.85 10.19 4.204l34.671-14.397c1.949-.81 3.456-2.308 4.244-4.217.789-1.91.776-4.035-.036-5.982zm356.467-124.503c-4.882-14.411-25.659-17.771-55.574-8.994l-90.548 26.564a37.528 37.528 0 0 1-1.166 12.797c-2.597 9.691-8.84 17.808-17.579 22.854s-18.891 6.392-28.58 3.797l-86.901-23.285a7 7 0 0 1 3.623-13.523l86.901 23.285c6.079 1.629 12.455.777 17.957-2.398 5.501-3.176 9.427-8.272 11.056-14.352s.777-12.456-2.398-17.956c-3.176-5.501-8.272-9.427-14.352-11.056l-65.391-17.521a6.966 6.966 0 0 1-2.237-1.052c-41.22-29.229-61.143-21.788-95.645-4.917-17.968 8.785-35.761 17.252-52.554 25.187l40.521 97.302 21.869-10.633c11.357-5.522 23.263-6.536 35.391-3.016l72.118 20.939c19.039 5.531 43.72-4.079 63.551-11.798a1858.49 1858.49 0 0 1 4.418-1.715l135.351-52.158c14.802-5.703 24.793-24.7 20.169-38.351zM189.396 178.072V27.038c0-9.946 8.093-18.039 18.039-18.039h267.174c9.946 0 18.039 8.092 18.039 18.039v151.034c0 9.946-8.093 18.039-18.039 18.039H207.435c-9.947-.001-18.039-8.093-18.039-18.039zm14 0a4.044 4.044 0 0 0 4.039 4.039h267.174a4.043 4.043 0 0 0 4.039-4.039V27.038a4.044 4.044 0 0 0-4.039-4.039H207.435a4.043 4.043 0 0 0-4.039 4.039zm8.366-37.481V64.519a7 7 0 0 1 7-7h3.787c8.473 0 15.366-6.893 15.366-15.366v-3.788a7 7 0 0 1 7-7h192.213a7 7 0 0 1 7 7v3.788c0 8.473 6.894 15.366 15.366 15.366h3.788a7 7 0 0 1 7 7v76.073a7 7 0 0 1-7 7h-3.788c-8.473 0-15.366 6.893-15.366 15.365v3.788a7 7 0 0 1-7 7H244.915a7 7 0 0 1-7-7v-3.788c0-8.472-6.894-15.365-15.366-15.365h-3.787a7 7 0 0 1-7-7.001zm14-6.825c13.633 1.489 24.489 12.347 25.979 25.979h178.562c1.489-13.632 12.347-24.489 25.979-25.979V71.344c-13.633-1.49-24.49-12.347-25.979-25.979H251.74c-1.489 13.632-12.346 24.489-25.979 25.979v62.422zm61.928-31.211c0-29.407 23.924-53.332 53.331-53.332s53.331 23.924 53.331 53.332-23.924 53.332-53.331 53.332-53.331-23.925-53.331-53.332zm14 0c0 21.688 17.644 39.332 39.331 39.332s39.331-17.644 39.331-39.332-17.644-39.332-39.331-39.332-39.331 17.644-39.331 39.332zm39.331 7.183c2.469 0 4.188 1.576 4.188 2.991s-1.72 2.991-4.188 2.991c-1.645 0-2.262-.22-4.556-2.385a7 7 0 0 0-9.61 10.182c1.956 1.846 4.217 3.764 7.295 4.97l.005.194a7 7 0 0 0 6.995 6.831c.057 0 .114 0 .172-.002a7 7 0 0 0 6.829-7.154c6.495-2.596 11.058-8.622 11.058-15.627 0-9.369-8.159-16.991-18.188-16.991-2.469 0-4.188-1.576-4.188-2.991s1.721-2.991 4.188-2.991c1.248 0 2.433.418 3.249 1.147a7 7 0 0 0 9.326-10.442 18.32 18.32 0 0 0-5.695-3.448l-.014-.585c-.092-3.865-3.313-6.916-7.165-6.831a7 7 0 0 0-6.831 7.166l.008.352c-6.499 2.594-11.066 8.623-11.066 15.631 0 9.37 8.159 16.992 18.188 16.992z" fill="#ffffff" opacity="1" data-original="#000000" class=""></path></g></svg>