<svg xmlns="http://www.w3.org/2000/svg" id="Layer_1" data-name="Layer 1" viewBox="0 0 59.43 60">
  <defs>
    <style>
      .cls-1{fill:#231f20;}.cls-2{fill:#00a455;stroke:#231f20;stroke-miterlimit:10;stroke-width:0.7px;}</style>
  </defs>
  <polygon class="cls-1" points="50.19 6.44 49.9 6.91 50.63 7.36 50.98 6.8 50.19 6.44"></polygon>
  <polygon class="cls-1" points="49.13 6.44 49.65 6.99 49.4 7.4 48.9 6.82 49.13 6.44"></polygon>
  <polygon class="cls-1" points="48.49 6.05 48.32 6.34 47.82 5.84 48.49 6.05"></polygon>
  <path class="cls-1" d="M29.74,40.21c-.06-.21-.13-.44-.21-.67C29.6,39.76,29.68,40,29.74,40.21Z"></path>
  <path class="cls-2"
    d="M47.7,32.2l-1-1.94-1.56-3.09c-.06-.14-.13-.27-.2-.41-.53-1-1.05-2.07-1.59-3.1a.65.65,0,0,0-.91-.31c-.57.28-1.12.59-1.67.89l-1,.58c-.69.37-1.09.59-1.3.73l-.05,0a2.17,2.17,0,0,0-.23.19h0a1.6,1.6,0,0,0-.25.27c-.13.17-.07.39,0,.62v0c.21.43.4.87.61,1.3l1.06,2.09,1.69,3.33c.4.8.8,1.6,1.21,2.4.05.08.08.16.12.24h0a.79.79,0,0,0,.6.57h0a2.47,2.47,0,0,0,.64-.17h0a2.1,2.1,0,0,0,.43-.23h0l.27-.15,3.2-1.78a.79.79,0,0,0,.35-1.06C48.05,32.87,47.87,32.54,47.7,32.2Z"></path>
  <polygon class="cls-1" points="48.61 23.52 47.14 22.01 44.92 23.84 45.99 25.64 48.61 23.52"></polygon>
  <path class="cls-1" d="M50.2,28.37l1.38,1.79s1.94-2.07,2.46-2.8L52.32,26S51.14,27.45,50.2,28.37Z"></path>
  <path class="cls-1"
    d="M48.62,24.53l1.91,2.55a11.64,11.64,0,0,0,1.82-2.31l-1.79-2.23A23.43,23.43,0,0,1,48.62,24.53Z"></path>
  <path class="cls-1"
    d="M51.09,20.5,49.9,19.35A17.93,17.93,0,0,1,48,21.27l1.18,1.32A12.21,12.21,0,0,0,51.09,20.5Z"></path>
  <path class="cls-1"
    d="M53.37,24.84l1.35,1.64C55,26,56,24.18,56,24.18l-1.2-1.34A15,15,0,0,1,53.37,24.84Z"></path>
  <path class="cls-1"
    d="M54.56,20.67l-1.45-1.46a14.58,14.58,0,0,1-1.34,2.19L53.14,23A23,23,0,0,0,54.56,20.67Z"></path>
  <path class="cls-1" d="M52.92,17.16l-1.06-.91a9.5,9.5,0,0,1-1,1.82l1.08,1Z"></path>
  <path class="cls-1" d="M55.83,21.46l1.08.67a9.18,9.18,0,0,0,.63-2l-1-.78Z"></path>
  <path class="cls-1"
    d="M54.75,15.67A6.2,6.2,0,0,1,54.27,18l1,1a4.25,4.25,0,0,0,.68-2.59S54.73,15.3,54.75,15.67Z"></path>
  <path class="cls-1" d="M58,14.8A7.35,7.35,0,0,0,57.46,13l-.92.08.28,1.66Z"></path>
  <path class="cls-1" d="M53.27,14.81c.08-.09.21-.58.1-1.88l-1-.3a5.21,5.21,0,0,1,0,2Z"></path>
  <polygon class="cls-1" points="54.3 12.89 55.27 13.03 54.88 11.48 53.91 11.29 54.3 12.89"></polygon>
  <polygon class="cls-1" points="54.45 8.99 53.27 8.09 52.84 8.63 53.71 9.48 54.45 8.99"></polygon>
  <polygon class="cls-1" points="51.38 9.8 51.95 10.95 52.47 10.38 51.85 9.41 51.38 9.8"></polygon>
  <polygon class="cls-1" points="52.05 8.46 51.39 7.83 50.96 8.29 51.69 9.05 52.05 8.46"></polygon>
  <polygon class="cls-1" points="46.71 30.26 48.68 28.44 46.86 25.89 45.15 27.17 46.71 30.26"></polygon>
  <polygon class="cls-1" points="47.74 31.23 48.47 32.45 50.68 30.57 49.74 29.5 47.74 31.23"></polygon>
  <path class="cls-2"
    d="M40.75,34.91c-.53-1.13-1-2.27-1.58-3.41-.43-.94-.86-1.88-1.3-2.82l-.43-.9-.64.3a10.49,10.49,0,0,1-2.5.25c-1.08,0-2.16-.14-3.24-.14s-2.1.06-3.14.15a5.79,5.79,0,0,0-2.19.8,37,37,0,0,0-3.46,2,14.22,14.22,0,0,1,4.08,3.39c.13,0,3.74-.83,3.83-.83.62,0,.73.83,0,1l-2.62.67c-.18,0-.35.1-.53.12-1.16.29-2.33.52-3.49.81-1,.25-2,.49-3.05.75a2.12,2.12,0,0,0-1,3.51,2.29,2.29,0,0,0,2.18.62l2.64-.36,2.14-.29,2.18-.31a10.52,10.52,0,0,1,2.13.25,7.9,7.9,0,0,0,3.21.2,6.78,6.78,0,0,0,2.78-1.09A11,11,0,0,0,39,37.29,4.43,4.43,0,0,1,41,35.71s.07-.19,0-.26S40.83,35.09,40.75,34.91Z"></path>
  <path class="cls-1"
    d="M15.52,39.43a3.35,3.35,0,0,0-2.84-1.52l-.56,0A3.38,3.38,0,0,0,9.33,41.3V42c.16,2,1.7,4.55,6.19,7.7,4.26-3,5.86-5.39,6.15-7.37H21.3a3.44,3.44,0,0,1-2.64-1.11,3.49,3.49,0,0,1-.82-3.29A3.49,3.49,0,0,0,15.52,39.43Z"></path>
  <path class="cls-1"
    d="M28.82,41.22a1.18,1.18,0,0,0-.27,0l-.84.11c1.66,4.54,1.94,9.48.66,11.21C26.05,55.69,14.43,58.09,6.61,55a6.49,6.49,0,0,1-3.79-3.55c-1.79-4.17.53-9.95.56-10a16.33,16.33,0,0,1,11-10.27,13.32,13.32,0,0,1,9.7,4l1.29-.3.09,0a15.55,15.55,0,0,0-5.33-3.75,1.94,1.94,0,0,0,1.7-1.92v-.23A1.94,1.94,0,0,0,20.14,27c2.39-2.44,3.29-4.47,2.46-5.66-.59-.84-1.83-.94-3.16-.25-3.53,1.82-5,1.71-5.53,1.49l-.21-.09c-1.08-.45-2.42-1-3.19.65-.35.74,0,1.76,1.18,3.19.18.23.36.44.54.64h-.06a2,2,0,0,0-1.95,1.95v.23A2,2,0,0,0,11.49,31,18,18,0,0,0,2.26,41a21.18,21.18,0,0,0-1,3.69A12.61,12.61,0,0,0,1.72,52a7.65,7.65,0,0,0,4.46,4.2,24.76,24.76,0,0,0,8.87,1.51,31.42,31.42,0,0,0,4.8-.37c4.52-.69,8.16-2.23,9.48-4,1.6-2.16,1.2-7.46-.4-12.06ZM11.59,23.65c.25-.52.33-.59,1.64,0l.22.09c1.34.55,3.47.05,6.54-1.53.82-.43,1.45-.39,1.62-.14s.12,1.91-3.17,4.95H16.68a4.12,4.12,0,0,1,1.74-1.81.6.6,0,0,0,.34-.78.59.59,0,0,0-.77-.34A5.91,5.91,0,0,0,15.32,27H13.88C12.5,25.62,11.41,24.05,11.59,23.65Zm-.17,5.28a.76.76,0,0,1,.75-.75h1.29a.54.54,0,0,0,.22,0,.52.52,0,0,0,.21,0h6a.76.76,0,0,1,.76.75v.23a.76.76,0,0,1-.76.75H12.17a.76.76,0,0,1-.75-.75Z"></path>
</svg>