<svg xmlns="http://www.w3.org/2000/svg" id="Layer_1" data-name="Layer 1" viewBox="0 0 59.43 60">
  <defs>
    <style>
      .cls-1{fill:#231f20;}.cls-2{fill:#00a455;stroke:#231f20;stroke-miterlimit:10;stroke-width:0.99px;}</style>
  </defs>
  <path class="cls-1" d="M20.37,36.4a8.18,8.18,0,0,0,.84-3.68l-6.71,1a9.72,9.72,0,0,0,.8,3Z"></path>
  <path class="cls-2"
    d="M31.43,20.27C27.5,15.05,21.17,13.11,19.19,9L19,8.56c-2.88,6-15.51,8.3-15.51,21.12l-2.8,1V50.15H3.61V32.31l2.46-.89C4.75,19.14,16.45,17.5,19,12.25h0c1.37,2.86,6.18,4.75,9.8,7.22l.37.11Z"></path>
  <path class="cls-2"
    d="M44.89,10.09,50.3,5.86l-.15-.47-3.8,1.36L45.41,6a.41.41,0,0,0-.59,0l-.4.47a.32.32,0,0,0,0,.46l.41.35-1.25.45-1-.87a.42.42,0,0,0-.59,0l-.4.47a.31.31,0,0,0,0,.45l.49.43-1,.34c-.52-.46-1-.91-1.59-1.35-1.88-1.52-3-2-4.19-1.63h0v0c-.23,1.21.47,2.27,2.27,3.89.54.48,1.08.94,1.62,1.39l-.16.88-.5-.42a.32.32,0,0,0-.45,0l-.4.47a.43.43,0,0,0,.05.6l1,.86-.24,1.31-.42-.36a.32.32,0,0,0-.45,0l-.4.47a.42.42,0,0,0,0,.59l.94.8-.75,4,.49.07,3.32-6,.87-1c1.72,1.26,3.34,2.33,4.68,3.16l-.76,3.71.7.48,1.59-3.26c1.13.67,1.83,1,1.83,1l0,0s-.48-.63-1.33-1.66L52,14.51l-.59-.61-3.65,1.37c-1-1.18-2.32-2.61-3.82-4.09Z"></path>
  <path class="cls-1"
    d="M25.43,43.82l-.81-1.55L24.27,44s-.69,3.23-2.63,3.23c-1.68,0-2.89-2.39-3.22-3.31l-.64-1.38L17.42,44a4.11,4.11,0,0,1-.86,2.18,1.31,1.31,0,0,1-1,.38c-1.74,0-2.41-3.52-2.42-3.62l-.1-.45c-.8,3.63-1.4,3.56-1.8,3.87V37.09L14,36.87a10.72,10.72,0,0,0,.48-3.11l-3.26.52v-.71l17.85-3.18V31.5l-7.85,1.21a10.16,10.16,0,0,0,1.12,3.55l6.73-.5V46.55c1.23-.38,2.41-.76,3.53-1.15A13.47,13.47,0,0,0,33.38,44,7.41,7.41,0,0,0,33.67,45C40.5,42.55,45,39.9,47.9,37.35L43.55,37a13.56,13.56,0,0,1-.59-3.1l5.07.89v-1L35.16,31.41v0l-5.85-1.05H29.2V26.1l.11,0,18.72,5V26.56L29.2,20.9h0L10.51,27.45V47.22A3.15,3.15,0,0,0,13,44.11s.21,3,2.56,3,2.28-3,2.28-3,1.31,3.73,3.8,3.73,3.24-3.73,3.24-3.73a13.84,13.84,0,0,0,2.22,3l.87-.25A9.21,9.21,0,0,1,25.43,43.82Zm17.39-10a26.12,26.12,0,0,1-.65,3L36,36.32a15.18,15.18,0,0,1-.78-3.82ZM29.2,31.48l.11,0,5.77,1a15.65,15.65,0,0,1-.74,3.7l-5-.43H29.2Zm-18-3.58,17.34-6.14.51-.16v4.53L11.24,30.77Z"></path>
  <path class="cls-1"
    d="M51,19.34S69.58,40,17.14,50.84c0,0,28.71-2.9,36.58-13.37S51,19.34,51,19.34Z"></path>
  <path class="cls-1" d="M57.53,29.22S62,39.5,43.34,47.17C43.34,47.17,63.18,44.48,57.53,29.22Z"></path>
</svg>