<svg xmlns="http://www.w3.org/2000/svg" id="Layer_1" data-name="Layer 1" viewBox="0 0 59.43 60">
  <defs>
    <style>
      .cls-1{fill:#00a455;stroke-width:1.3px;}.cls-1,.cls-2{stroke:#231f20;stroke-miterlimit:10;}.cls-2{fill:#231f20;stroke-width:0.97px;}</style>
  </defs>
  <path class="cls-1"
    d="M27.63,31.58V30s-2.06.07-4.94,2.58c0,0-6.05-8.3-17.63-4.69,0,0,7.35-10.17,16.29-4.14,0,0,9.76-6.78,18.77,0,0,0,7.54-7,17.66,5.05,0,0-4.29-17.89-25.3-19.75,0,0-.29-.1-.29-.29s0-6.85,0-6.85-.73-2-1.9-.19l-.1,7.13a2,2,0,0,1-.62.33S12.15,7.3,1.74,30.38c0,0,12.35-6.52,20.65,4.16C22.39,34.54,25.75,31.36,27.63,31.58Z"></path>
  <path class="cls-2"
    d="M41.8,52.26a.81.81,0,0,0-.81.81,4.42,4.42,0,0,1-4.42,4.42h-.13A4.42,4.42,0,0,1,32,53.07V24a.81.81,0,0,0-1.62,0V53.07a6,6,0,0,0,6,6h.13a6,6,0,0,0,6-6A.81.81,0,0,0,41.8,52.26Z"></path>
</svg>