<svg xmlns="http://www.w3.org/2000/svg" id="Layer_1" data-name="Layer 1" viewBox="0 0 60 60">
  <defs>
    <style>.cls-1{fill:#00a455;}</style>
  </defs>
  <path class="cls-1"
    d="M12.1,45.07h-1v8.76H8.65V50.07a3.75,3.75,0,0,0-.48-.57.65.65,0,0,0-.47-.22l-.12,0a.69.69,0,0,0-.21.08.74.74,0,0,0-.21.13.29.29,0,0,0-.09.21,3.88,3.88,0,0,1-.29,1.46A4.36,4.36,0,0,1,6,52.44a4.06,4.06,0,0,1-1.08.87,2.62,2.62,0,0,1-1.22.32,2.8,2.8,0,0,1-1.78-.58,3.3,3.3,0,0,1-1.06-1.5l1.59-1.64a2.73,2.73,0,0,0,.54.81.92.92,0,0,0,.66.3.8.8,0,0,0,.72-.4,1.55,1.55,0,0,0,.25-.84A1.66,1.66,0,0,0,4.46,49,1.47,1.47,0,0,0,4,48.43a2.94,2.94,0,0,0-.74-.31,7.25,7.25,0,0,0-.93-.19l-.63-.12,1.08-2.74H.49V42.65H12.1ZM8.65,47V45.07H5.36L5,46.13a3.22,3.22,0,0,1,.68.47,4.41,4.41,0,0,1,.61.63A2.84,2.84,0,0,1,8.65,47Z"></path>
  <path class="cls-1"
    d="M8.52,58.38H8.2a4,4,0,0,1-2.74-.82,3,3,0,0,1-.94-2.4,1.54,1.54,0,0,1,.27-.9,2.34,2.34,0,0,1,.76-.66,4.19,4.19,0,0,1,1.1-.39A6,6,0,0,1,8,53.07a6.74,6.74,0,0,1,2,.32,8.16,8.16,0,0,1,1.85.83,7.76,7.76,0,0,1,1.52,1.17,5.77,5.77,0,0,1,1,1.37L13.15,58l-.27-.36a5.86,5.86,0,0,0-.75-.79,4.26,4.26,0,0,0-1.07-.69,1.66,1.66,0,0,1-.27.78,3.28,3.28,0,0,1-.58.71,3,3,0,0,1-.8.5A2.33,2.33,0,0,1,8.52,58.38Zm-.89-1.87a.93.93,0,0,0,.29-.07,1.31,1.31,0,0,0,.33-.21,1.69,1.69,0,0,0,.27-.32,1,1,0,0,0,.13-.41.75.75,0,0,0-.45-.34A2.18,2.18,0,0,0,7.48,55a.8.8,0,0,0-.47.12.55.55,0,0,0-.18.49.88.88,0,0,0,.22.67A.83.83,0,0,0,7.63,56.51Z"></path>
  <path class="cls-1"
    d="M15.2,45.07v2a4.94,4.94,0,0,1,.85-.54,4.36,4.36,0,0,1,.77-.3,3.88,3.88,0,0,1,.76-.12h.84a5.9,5.9,0,0,1,1.18.1,1.87,1.87,0,0,1,.76.31l.75,2.34a1.27,1.27,0,0,0-.5.23,2.33,2.33,0,0,0-.55.54,3.34,3.34,0,0,0-.44.82,3,3,0,0,0-.18,1.07,3.34,3.34,0,0,0,1,2.3L18.8,55.57A5.47,5.47,0,0,1,17,51.67a5.65,5.65,0,0,1,.91-3.09,3.45,3.45,0,0,0-1.34.35,5.22,5.22,0,0,0-1.09.7,6.93,6.93,0,0,0-.86.85c-.24.3-.46.57-.64.81l-1.22-.88a.58.58,0,0,1-.31-.48,1.66,1.66,0,0,1,.16-.65,2,2,0,0,0,.15-.74V45.07h-1V42.65h9.93v2.42Z"></path>
  <path class="cls-1"
    d="M22.32,42.65V41.19a3.39,3.39,0,0,1,.32-1.27,4,4,0,0,1,.66-1,4.92,4.92,0,0,1,.88-.7,6.25,6.25,0,0,1,.93-.47A5,5,0,0,1,26,37.5q.39-.09.63-.12l.1,0a7,7,0,0,1,1.42-.15,7.47,7.47,0,0,1,3.55.91,10.58,10.58,0,0,1,3.09,2.58l-1.89,1.55-.81-.81a9.56,9.56,0,0,0-1.1-.89A5.06,5.06,0,0,0,30,40a4.82,4.82,0,0,0-.92-.28,5.89,5.89,0,0,0-.95-.08,4.89,4.89,0,0,0-1.15.13,4.79,4.79,0,0,0-1,.34,3.24,3.24,0,0,0-.78.48,1.33,1.33,0,0,0-.42.53v1.53h1v2.42h-1v8.76H22.35V45.07h-1V42.65Z"></path>
  <path class="cls-1"
    d="M26,48.08l6.79-2.77v-.24H25.44V42.65H36.29v2.42h-1v8.76H32.38l-.86-.67a6.92,6.92,0,0,0-1.46-.87,6.06,6.06,0,0,0-1.38-.4h-.2a3.75,3.75,0,0,0-1.53.39Zm3,1.4a4.91,4.91,0,0,1,1.05.22,8.5,8.5,0,0,1,1,.41,8.2,8.2,0,0,1,.93.5,8.1,8.1,0,0,1,.78.52V48Z"></path>
  <path class="cls-1"
    d="M37.45,45.11a.08.08,0,0,1,0,0H35.93V42.65h9.26v2.42H43.28a3.87,3.87,0,0,1,1,1.49,5.08,5.08,0,0,1,.32,1.77,4.14,4.14,0,0,1-.23,1.39,3.94,3.94,0,0,1-.65,1.15,4.57,4.57,0,0,1-1,.89,4.69,4.69,0,0,1-1.21.59l2.67,1.39L43.1,55.9l-.23-.13a1.61,1.61,0,0,1-.28-.13c-.12-.07-.24-.14-.39-.21l-5.86-3,.63-2,.63.11.47,0a10.86,10.86,0,0,0,1.33-.09,5.74,5.74,0,0,0,1.34-.36,3.05,3.05,0,0,0,1-.71,1.6,1.6,0,0,0,.41-1.14,1.93,1.93,0,0,0-.15-.75,2.26,2.26,0,0,0-.41-.64,2,2,0,0,0-.62-.44,1.79,1.79,0,0,0-.76-.16h0a1.65,1.65,0,0,0-.87.24.74.74,0,0,0-.39.66c0,.43.16.64.48.64a1,1,0,0,0,.74-.27,1.08,1.08,0,0,0,.31-.68l.73,2a2.31,2.31,0,0,1-2,1.15A2.77,2.77,0,0,1,38,49.75a2.46,2.46,0,0,1-.85-.66,2.61,2.61,0,0,1-.5-.91,3.17,3.17,0,0,1-.16-1A3,3,0,0,1,37.45,45.11Z"></path>
  <path class="cls-1"
    d="M48.28,45.07v8.76H45.85V45.07H43.62v-1.9H41.73v-.8c0-.31-.17-.46-.52-.46a2,2,0,0,0-.38,0l-.46.08-.46.09a2.07,2.07,0,0,1-.4,0,1.94,1.94,0,0,1-.88-.22,2.81,2.81,0,0,1-.8-.59,3.28,3.28,0,0,1-.59-.86,2.24,2.24,0,0,1-.23-1,2,2,0,0,1,.26-.9,2.94,2.94,0,0,1,.9-1,5.78,5.78,0,0,1,1.76-.81,9.58,9.58,0,0,1,2.81-.34,6.49,6.49,0,0,1,2.42.42A5,5,0,0,1,46.92,38,4.52,4.52,0,0,1,48,39.6a5.58,5.58,0,0,1,.36,2,3.85,3.85,0,0,1,0,.48c0,.16,0,.33,0,.49v.08h1v2.42Zm-2.43-2.42c0-.17,0-.33.07-.49s0-.31,0-.45a2.58,2.58,0,0,0,0-.42l-.09-.37a3.07,3.07,0,0,0-3.11-2.3,6.87,6.87,0,0,0-2.3.27c-.45.18-.67.4-.67.66s.17.29.52.29a4.52,4.52,0,0,0,.79-.09,6.23,6.23,0,0,1,1.13-.09,2.14,2.14,0,0,1,1.4.48,1.64,1.64,0,0,1,.58,1.35v1.16Z"></path>
  <path class="cls-1"
    d="M55.65,45.07H48.94V42.65H59.1v2.42h-1v8.76H55.65V49.46a1.38,1.38,0,0,0-.34-.44,2.54,2.54,0,0,0-.54-.36,2.49,2.49,0,0,0-.65-.23,2.66,2.66,0,0,0-.67-.08,1.73,1.73,0,0,0-1,.31,1.16,1.16,0,0,0-.45,1,1.26,1.26,0,0,0,.16.55.5.5,0,0,0,.47.3.34.34,0,0,0,.3-.19,1,1,0,0,0,.12-.53v-.18l1.89,1a2.2,2.2,0,0,1-.73,1.61,2.74,2.74,0,0,1-1.86.58,2.44,2.44,0,0,1-1.08-.23,2.53,2.53,0,0,1-.88-.64,3,3,0,0,1-.6-1,4.17,4.17,0,0,1-.21-1.36A3.67,3.67,0,0,1,49.88,48a3.38,3.38,0,0,1,.89-1.14A3.7,3.7,0,0,1,52,46.14a4.9,4.9,0,0,1,1.47-.22,5.21,5.21,0,0,1,2.14.47Z"></path>
  <g id="DnCczp">
    <path class="cls-1"
      d="M43.16,10.83a15.23,15.23,0,0,1,1.39,2.84,15.24,15.24,0,0,1-.5,11.62A15.18,15.18,0,0,1,33.1,33.8a15.2,15.2,0,0,1-17.49-11,14.05,14.05,0,0,1-.49-3.17A14.59,14.59,0,0,1,16.77,12a15,15,0,0,1,8.86-7.53,14.64,14.64,0,0,1,3.94-.71,15.13,15.13,0,0,1,9,2.42c.22.14.2.23,0,.4C38,7.24,37.38,8,36.78,8.67c-.11.13-.18.15-.32.06A11.71,11.71,0,0,0,32,7.11,11.43,11.43,0,0,0,25.61,8a11.58,11.58,0,0,0-6.9,8.27,11.44,11.44,0,0,0,2.24,10,11.33,11.33,0,0,0,7.21,4.35A11.53,11.53,0,0,0,37.94,28a11.87,11.87,0,0,0,3.25-13.8.34.34,0,0,1,0-.35l1.86-2.9Z"></path>
    <path class="cls-1"
      d="M30.23,19l1.2-1.45q2.34-2.8,4.69-5.6,2-2.4,4.06-4.76c1.34-1.54,2.68-3.09,4.13-4.54A7.43,7.43,0,0,1,45,2c.19-.14.31-.11.46.06a1.51,1.51,0,0,1,.12,1.84c-.48.76-1,1.52-1.46,2.27q-5.34,8.35-10.7,16.71L32.4,24.57a2.49,2.49,0,0,1-4.26.05C26.45,22.09,24.75,19.55,23,17A1.22,1.22,0,0,1,22.85,16a5.51,5.51,0,0,1,1.7-2.62,2.06,2.06,0,0,1,.4-.25.45.45,0,0,1,.65.15c.84,1,1.67,2.09,2.51,3.14Z"></path>
  </g>
</svg>