<svg xmlns="http://www.w3.org/2000/svg" version="1.1" xmlns:xlink="http://www.w3.org/1999/xlink"
  width="512" height="512" x="0" y="0" viewBox="0 0 468 468"
  style="enable-background:new 0 0 512 512" xml:space="preserve" class=""><g><path d="M265.364 290.472c-9.714 0-15.404-11.476-9.58-19.217l19.736-26.226h-17.969c-9.1 0-15.052-10.289-10.272-18.202l30.525-50.559c3.426-5.673 10.801-7.496 16.475-4.07 5.674 3.425 7.496 10.802 4.07 16.475l-19.535 32.356h20.754c9.624 0 15.477 11.388 9.589 19.216l-34.195 45.441a11.982 11.982 0 0 1-9.598 4.786z" fill="#ffffff" opacity="1" data-original="#000000"></path><path d="M394 0H164c-23.159 0-42 18.841-42 42v101.502c0 6.627 5.373 12 12 12s12-5.373 12-12V42c0-9.925 8.075-18 18-18h24.921l7.303 41.642a25.959 25.959 0 0 0 25.609 21.509h124.333a25.958 25.958 0 0 0 25.609-21.509L379.078 24H394c9.925 0 18 8.075 18 18v325.133H270.468a120.86 120.86 0 0 0 1.255-27.192c16.768.433 33.494-3.002 48.688-10.133 5.999-2.816 8.58-9.963 5.765-15.962-2.817-6.001-9.961-8.579-15.962-5.765-13.243 6.216-28.058 8.824-42.632 7.63-10.708-38.282-39.966-68.896-77.429-81.491-1.75-47.224 36.946-88.22 84.404-88.22 33.741 0 63.495 20.504 76.899 50.01l-2.714-1.764c-5.555-3.612-12.988-2.037-16.601 3.521-3.612 5.557-2.036 12.989 3.521 16.601l28.487 18.519c6.385 4.151 15.425 1.058 17.896-6.184l11.224-32.881c2.141-6.272-1.208-13.093-7.479-15.233-5.21-1.777-10.788.238-13.759 4.563C354.052 146.19 315.691 122 274.557 122c-59.09 0-107.289 47.728-108.442 106.834-4.632-.545-9.34-.834-14.115-.834-66.168 0-120 53.832-120 120s53.832 120 120 120c13.083 0 25.68-2.112 37.477-6H394c23.159 0 42-18.841 42-42V42c0-23.159-18.841-42-42-42zm-45.863 61.495a1.998 1.998 0 0 1-1.971 1.655H221.833a1.997 1.997 0 0 1-1.97-1.655L213.288 24h141.425zM152 444c-52.935 0-96-43.065-96-96s43.065-96 96-96 96 43.065 96 96-43.065 96-96 96zm260-24c0 9.925-8.075 18-18 18H231.279c14.362-12.666 25.678-28.705 32.698-46.867H412z" fill="#ffffff" opacity="1" data-original="#000000"></path><path d="M159.703 335.874c-14.484-5.949-18.671-9.415-18.671-15.447 0-4.978 3.634-10.296 13.834-10.296 9.064 0 16.533 3.481 24.152 7.852l7.546-19.777c-7.314-4.416-14.968-7.397-23.554-8.252V273h-19.75v18.184c-16.141 4.016-26.131 15.948-26.131 31.304 0 19.033 15.083 27.529 31.37 33.871 11.89 4.785 16.74 9.506 16.74 16.294 0 7.392-6.464 12.359-16.084 12.359-10.141 0-19.091-4.16-27.219-9.814l-7.25 20.091c8.005 5.96 17.415 9.182 27.363 10.113V423h19.923v-18.708c16.638-4.188 27.342-17.004 27.342-32.841 0-16.535-8.856-27.176-29.611-35.577z" fill="#ffffff" opacity="1" data-original="#000000"></path><circle cx="134" cy="191.53" r="14" fill="#ffffff" opacity="1" data-original="#000000"></circle><circle cx="351.542" cy="292.467" r="14" fill="#ffffff" opacity="1" data-original="#000000"></circle></g></svg>