<svg xmlns="http://www.w3.org/2000/svg" xml:space="preserve" width="140" height="42"
  viewBox="0 0 157.2 46.4">
                                        <title>Get bKash app on Google Play</title>
                                    <path fill="#1E1E1E" fill-rule="evenodd" d="M151.3 46.4H5.8c-3.2 0-5.8-2.6-5.8-5.8V5.8C0 2.6 2.6 0 5.8 0h145.5c3.2 0 5.8 2.6 5.8 5.8v34.8c0 3.2-2.6 5.8-5.8 5.8z" clip-rule="evenodd"></path>
                                    <path fill="#A6A6A6" fill-rule="evenodd" d="M151.3.9c2.7 0 4.9 2.2 4.9 4.9v34.8c0 2.7-2.2 4.9-4.9 4.9H5.8c-2.7 0-4.9-2.2-4.9-4.9V5.8C.9 3.1 3.1.9 5.8.9h145.5zm0-.9H5.8C2.6 0 0 2.6 0 5.8v34.8c0 3.2 2.6 5.8 5.8 5.8h145.5c3.2 0 5.8-2.6 5.8-5.8V5.8c0-3.2-2.6-5.8-5.8-5.8z" clip-rule="evenodd"></path>
                                    <path fill="#FFF" d="M82.8 15.3c-1 0-1.9-.4-2.6-1.1-.7-.7-1.1-1.7-1.1-2.7 0-1 .4-2 1.1-2.7.7-.7 1.6-1.1 2.6-1.1s1.9.4 2.6 1.1c1.4 1.5 1.4 3.8 0 5.3-.7.9-1.6 1.3-2.6 1.2zm-31.2 0c-1 0-1.9-.4-2.6-1.1-1.5-1.5-1.5-3.8 0-5.3.7-.7 1.7-1.1 2.7-1.1.5 0 1 .1 1.5.3.4.2.8.4 1.1.8l-.1.1-.8.8-.1-.1c-.5-.5-1.1-.8-1.8-.8s-1.3.3-1.8.7c-1 1.1-1 2.8 0 3.9 1 1 2.6 1 3.7 0 .3-.3.5-.8.5-1.2h-2.5v-1.1H55v.1c0 .2 0 .4.1.5 0 .9-.3 1.8-.9 2.4-.7.8-1.7 1.2-2.6 1.1zm41.5-.1H92l-3.4-5.4v5.4h-1.1V8h1.3v.1l3.2 5.1V8h1.1v7.2zm-18.6 0h-1.1V9.1h-1.9V8h5v1.1h-1.9l-.1 6.1zm-4 0h-1.1V8h1.1v7.2zm-6.3 0h-1.1V9.1h-1.9V8h5v1.1h-1.9l-.1 6.1zm-3.8 0h-4.3V8h4.3v1.1h-3.2v2h2.9v1.1h-2.9v2h3.2v1zM81 13.5c.5.5 1.1.8 1.8.8s1.3-.3 1.8-.8c1-1.1 1-2.7 0-3.8-.5-.5-1.1-.8-1.8-.8s-1.3.3-1.8.8c-1 1.1-1 2.7 0 3.8z"></path>
                                    <path fill="#FFF" fill-rule="evenodd" d="M79 25.2c-2.7 0-4.9 2.2-4.9 4.9S76.3 35 79 35s4.9-2.2 4.9-4.9-2.1-4.9-4.8-4.9H79zm0 7.9c-1.7.1-3.1-1.1-3.2-2.8-.1-1.7 1.1-3.1 2.8-3.2 1.7-.1 3.1 1.1 3.2 2.8v.2c0 1.6-1.2 3-2.8 3zm-10.8-7.9c-2.7 0-4.9 2.2-4.9 4.9s2.2 4.9 4.9 4.9 4.9-2.2 4.9-4.9-2.1-4.9-4.8-4.9h-.1zm0 7.9c-1.7.1-3.1-1.1-3.2-2.8-.1-1.7 1.1-3.1 2.8-3.2 1.7-.1 3.1 1.1 3.2 2.8v.2c0 1.6-1.2 3-2.8 3zm-12.8-6.4v2.1h5c-.1 1-.5 1.9-1.1 2.6-1 1-2.4 1.6-3.9 1.5-3.1-.1-5.5-2.6-5.5-5.7.1-3 2.5-5.4 5.5-5.5 1.4 0 2.8.5 3.8 1.5l1.5-1.5c-1.4-1.4-3.3-2.1-5.2-2.1-4.2 0-7.7 3.3-7.7 7.6 0 4.2 3.3 7.7 7.6 7.7h.2c2 .1 4-.7 5.3-2.2 1.2-1.3 1.9-3.1 1.8-4.9 0-.4 0-.9-.1-1.3l-7.2.2zm52.5 1.7c-.6-1.8-2.3-3.1-4.2-3.1-2.6 0-4.7 2.1-4.7 4.7v.2c-.1 2.7 2 4.9 4.7 4.9h.2c1.7 0 3.2-.8 4.1-2.2l-1.7-1.1c-.5.9-1.4 1.4-2.4 1.4s-2-.6-2.4-1.5l6.6-2.7-.2-.6zm-6.7 1.6c-.1-1.5 1-2.8 2.5-2.9.8-.1 1.5.4 1.8 1l-4.3 1.9zm-5.4 4.8H98V20.3h-2.2v14.5zm-3.6-8.5c-.7-.7-1.7-1.1-2.7-1.1-2.7.1-4.8 2.4-4.7 5.1.1 2.6 2.2 4.6 4.7 4.7 1 0 1.9-.4 2.6-1.1h.1v.7c0 1.9-1 2.9-2.6 2.9-1.1 0-2.1-.7-2.5-1.8l-1.9.8c.7 1.8 2.5 2.9 4.4 2.9 2.5 0 4.7-1.5 4.7-5.1v-8.8h-2l-.1.8zm-2.4 6.8c-1.7-.1-2.9-1.6-2.7-3.3.1-1.4 1.3-2.6 2.7-2.7 1.5.1 2.7 1.4 2.6 2.9v.1c.1 1.5-1 2.8-2.5 3h-.1zM118 20.3h-5.2v14.5h2.2v-5.5h3c2.5.1 4.6-1.7 4.8-4.2.1-2.5-1.7-4.6-4.2-4.8h-.6zm.1 7H115v-5h3.1c1.4 0 2.5 1.1 2.5 2.4 0 1.4-1.1 2.5-2.4 2.5 0 .1-.1.1-.1.1zm13.4-2.1c-1.6-.1-3.1.8-3.9 2.2l1.9.8c.4-.7 1.2-1.1 2-1.1 1.1-.1 2.2.7 2.3 1.9v.2c-.7-.4-1.5-.6-2.3-.6-2.1 0-4.2 1.1-4.2 3.3.1 1.8 1.6 3.3 3.5 3.2h.1c1.1.1 2.2-.5 2.8-1.4h.1v1.1h2.1v-5.6c-.1-2.6-2-4-4.4-4zm-.3 7.9c-.7 0-1.7-.3-1.7-1.2 0-1.1 1.2-1.5 2.3-1.5.7 0 1.4.1 2 .5-.2 1.2-1.3 2.2-2.6 2.2zm12.3-7.6-2.5 6.3h-.1l-2.6-6.3H136l3.9 8.8-2.2 4.9h2.3l5.9-13.7h-2.4zM124 34.8h2.2V20.3H124v14.5z" clip-rule="evenodd"></path>
                                    <linearGradient id="googlePlayFooter1" x1="-818.89" x2="-819.001" y1="545.088" y2="545.119" gradientTransform="matrix(14.9996 0 0 -29.049 12331.185 15876.299)" gradientUnits="userSpaceOnUse">
                                        <stop offset="0" style="stop-color:#00a0ff"></stop>
                                        <stop offset=".007" style="stop-color:#00a1ff"></stop>
                                        <stop offset=".26" style="stop-color:#00beff"></stop>
                                        <stop offset=".512" style="stop-color:#00d2ff"></stop>
                                        <stop offset=".76" style="stop-color:#00dfff"></stop>
                                        <stop offset="1" style="stop-color:#00e3ff"></stop>
                                    </linearGradient>
                                    <path fill="url(#googlePlayFooter1)" fill-rule="evenodd" d="M12.1 8.7c-.4.5-.6 1-.5 1.6V36c0 .6.2 1.2.5 1.6l.1.1 14.4-14.4V23L12.1 8.7z" clip-rule="evenodd"></path>
                                    <linearGradient id="googlePlayFooter2" x1="-803.306" x2="-803.566" y1="511.463" y2="511.463" gradientTransform="matrix(11.7734 0 0 -9.916 9507.173 5094.86)" gradientUnits="userSpaceOnUse">
                                        <stop offset="0" style="stop-color:#ffe000"></stop>
                                        <stop offset=".409" style="stop-color:#ffbd00"></stop>
                                        <stop offset=".775" style="stop-color:orange"></stop>
                                        <stop offset="1" style="stop-color:#ff9c00"></stop>
                                    </linearGradient>
                                    <path fill="url(#googlePlayFooter2)" fill-rule="evenodd" d="m31.3 28.1-4.8-4.8V23l4.8-4.8.1.1 5.7 3.2c1.6.9 1.6 2.4 0 3.3l-5.8 3.3z" clip-rule="evenodd"></path>
                                    <linearGradient id="googlePlayFooter3" x1="-833.511" x2="-833.602" y1="527.927" y2="528.08" gradientTransform="matrix(19.347 0 0 -14.9225 16157.47 7923.468)" gradientUnits="userSpaceOnUse">
                                        <stop offset="0" style="stop-color:#ff3a44"></stop>
                                        <stop offset="1" style="stop-color:#c31162"></stop>
                                    </linearGradient>
                                    <path fill="url(#googlePlayFooter3)" fill-rule="evenodd" d="m31.4 28.1-4.9-4.9-14.4 14.4c.7.6 1.7.6 2.4.1l16.9-9.6" clip-rule="evenodd"></path>
                                    <linearGradient id="googlePlayFooter4" x1="-834.423" x2="-834.382" y1="528.375" y2="528.443" gradientTransform="matrix(19.347 0 0 -14.915 16157.442 7904.337)" gradientUnits="userSpaceOnUse">
                                        <stop offset="0" style="stop-color:#32a071"></stop>
                                        <stop offset=".068" style="stop-color:#2da771"></stop>
                                        <stop offset=".476" style="stop-color:#15cf74"></stop>
                                        <stop offset=".801" style="stop-color:#06e775"></stop>
                                        <stop offset="1" style="stop-color:#00f076"></stop>
                                    </linearGradient>
                                    <path fill="url(#googlePlayFooter4)" fill-rule="evenodd" d="M31.4 18.3 14.5 8.7c-.7-.6-1.7-.5-2.4.1l14.5 14.4 4.8-4.9z" clip-rule="evenodd"></path>
                                    <path fill-rule="evenodd" d="m31.3 28-16.8 9.6c-.7.5-1.6.5-2.3 0l-.1.1.1.1c.7.5 1.6.5 2.3 0l16.9-9.6-.1-.2z" clip-rule="evenodd" opacity=".2"></path>
                                    <path fill-rule="evenodd" d="M37.1 24.7 31.3 28l.1.1 5.7-3.2c.7-.3 1.1-.9 1.2-1.7-.1.6-.6 1.2-1.2 1.5z" clip-rule="evenodd" opacity=".12"></path>
                                    <path fill="#FFF" fill-rule="evenodd" d="m14.5 8.8 22.6 12.8c.6.3 1.1.8 1.2 1.5-.1-.7-.5-1.4-1.2-1.7L14.5 8.7c-1.6-.9-2.9-.2-2.9 1.7v.2c0-1.9 1.3-2.7 2.9-1.8z" clip-rule="evenodd" opacity=".25"></path>
                                </svg>