<svg xmlns="http://www.w3.org/2000/svg" version="1.1" xmlns:xlink="http://www.w3.org/1999/xlink"
  width="512" height="512" x="0" y="0" viewBox="0 0 512 512"
  style="enable-background:new 0 0 512 512" xml:space="preserve" class=""><g><path d="M259.95 193.9c0 10.82-7.47 19.93-17.52 22.45v2.29c0 4.42-3.58 8-8 8s-8-3.58-8-8v-2.3a23.275 23.275 0 0 1-13.14-8.92c-2.59-3.58-1.79-8.58 1.79-11.17s8.58-1.79 11.17 1.79c1.36 1.87 3.52 2.99 5.79 2.99h4.77c3.94 0 7.14-3.2 7.14-7.14s-3.2-7.14-7.14-7.14h-3.38c-12.76 0-23.14-10.38-23.14-23.14 0-10.82 7.47-19.93 17.52-22.45v-2.29c0-4.42 3.58-8 8-8s8 3.58 8 8v2.3c5.22 1.32 9.91 4.45 13.14 8.92 2.59 3.58 1.78 8.58-1.8 11.17s-8.58 1.78-11.17-1.8c-1.35-1.87-3.52-2.99-5.79-2.99h-4.77c-3.94 0-7.14 3.2-7.14 7.14s3.2 7.14 7.14 7.14h3.38c12.77.01 23.15 10.39 23.15 23.15zM511.5 62v138.46c0 7.93-6.45 14.38-14.38 14.38h-26.6c-7.93 0-14.38-6.45-14.38-14.38v-1.97c-11.93 7.37-18.37 19.73-27.2 36.67-.39.75-.79 1.51-1.18 2.27v21.01c0 14.02-11.41 25.43-25.43 25.43H67.92c-14.02 0-25.43-11.41-25.43-25.43V99.07c0-14.02 11.41-25.43 25.43-25.43h200.86c3.27-1.92 6.52-3.83 9.75-5.73 20.49-12.07 39.85-23.46 61.31-34.91 11.74-6.27 25.22-6.42 41.2-.47 12.03 4.48 21.43 10.09 30.52 15.53 12.9 7.7 25.17 15.03 44.57 18.85V62c0-7.93 6.45-14.38 14.38-14.38h26.6c7.94-.01 14.39 6.45 14.39 14.38zm-266.16 66.58c-.86-1.47-1.6-2.99-2.23-4.55-2.64-.38-5.31-.59-7.99-.59-30.5 0-55.32 24.82-55.32 55.32s24.82 55.32 55.32 55.32 55.32-24.82 55.32-55.32c0-11.79-3.77-23.24-10.69-32.68-13.48 1.35-27.16-5.06-34.41-17.5zm2-38.94h-138.5c-3.56 26.09-24.26 46.79-50.35 50.35v77.52c26.09 3.56 46.79 24.26 50.35 50.35H361.4c3.56-26.09 24.26-46.79 50.35-50.35v-75.95c-23.69 2.34-44.07-.48-69.65-27.51-6 3.43-12.85 7.32-19.53 11.1-9.78 5.54-19.86 11.26-27.17 15.5a71.297 71.297 0 0 1 11.04 38.1c0 39.33-31.99 71.32-71.32 71.32s-71.32-31.99-71.32-71.32 31.99-71.32 71.32-71.32c1.85 0 3.7.1 5.54.24a36.144 36.144 0 0 1 6.68-18.03zM58.49 99.07v24.72c17.25-3.27 30.88-16.89 34.15-34.15H67.92c-5.2 0-9.43 4.23-9.43 9.43zm9.43 168.8h24.72c-3.27-17.25-16.89-30.88-34.15-34.15v24.72c0 5.2 4.23 9.43 9.43 9.43zm343.83-9.43v-24.72c-17.25 3.27-30.88 16.89-34.15 34.15h24.72c5.2 0 9.43-4.23 9.43-9.43zm44.38-77.85V83.17c-23.91-4.15-38.57-12.89-52.77-21.38-8.87-5.3-17.24-10.3-27.9-14.27-11.59-4.31-20.52-4.44-28.09-.41-21.17 11.29-40.38 22.61-60.73 34.59-6.7 3.94-13.47 7.93-20.4 11.97-4.5 2.62-7.71 6.87-9.06 11.97-1.34 5.1-.64 10.39 1.98 14.88 5.45 9.36 17.5 12.53 26.85 7.08 7.46-4.35 18.24-10.46 28.66-16.37 8.84-5.01 17.98-10.19 25.01-14.25a7.992 7.992 0 0 1 10.01 1.65c26.37 30.04 43.39 29.44 68.98 25.98a8 8 0 0 1 9.08 7.92v72.33c7.03-10.38 15.53-18.93 28.38-24.27zM495.5 63.61h-23.37v135.23h23.37zM348.75 337.19c8.93 15.46 3.61 35.31-11.85 44.23l-130.13 75.13c-7.94 4.58-16.54 6.88-25.7 6.88-4.41 0-8.95-.53-13.6-1.6l-52.04-11.93c-13.58-3.11-24.43-.78-36.55 8.03l.87 3.26c1.91 7.12-2.33 14.46-9.45 16.37l-21.62 5.79c-1.15.31-2.31.46-3.47.46-2.32 0-4.61-.61-6.67-1.8-3.1-1.79-5.31-4.67-6.23-8.11L.96 356.95c-.92-3.44-.45-7.05 1.34-10.14 1.79-3.1 4.67-5.31 8.11-6.23l21.61-5.79c7.12-1.91 14.47 2.34 16.37 9.46l.3 1.1 22.07-16.91c11.38-8.72 24.36-12.18 38.58-10.3.35.05.71.12 1.05.21l90.85 24.73c13.35 3.63 22.79 14.57 25.19 27.34l78.08-45.08c7.47-4.31 16.19-5.45 24.56-3.2 8.38 2.23 15.37 7.58 19.68 15.05zM63.6 462.8 36.33 361.01c-.01-.02-.01-.04-.02-.07l-2.69-10.03-16.53 4.43 29.98 111.88zm271.29-117.61c-2.17-3.76-5.71-6.46-9.95-7.6-4.25-1.14-8.66-.57-12.42 1.61l-88.08 50.85c-5.4 13.25-18.37 21.74-32.38 21.74-3.03 0-6.11-.4-9.17-1.23l-48.53-13.21c-4.26-1.16-6.78-5.56-5.62-9.82s5.56-6.78 9.82-5.62l48.53 13.21c10.09 2.74 20.54-3.23 23.29-13.32s-3.23-20.54-13.32-23.29l-90.31-24.58c-9.78-1.17-18.37 1.18-26.24 7.21l-27.32 20.92L74.5 441.6c14.18-8.77 28.27-11.01 44.51-7.29l52.04 11.93c10.4 2.38 19.47 1.23 27.73-3.54l130.13-75.13c7.81-4.52 10.5-14.56 5.98-22.38z" fill="#ffffff" opacity="1" data-original="#000000" class=""></path></g></svg>